<svg xmlns="http://www.w3.org/2000/svg" viewBox="0 0 640 360" width="640" height="360" role="img" aria-labelledby="t"><title id="t">Bài học tiếng Anh</title><rect width="640" height="360" fill="#eef2fb"/><path transform="translate(520 90) scale(1.9)" fill="#dbe4f7" opacity="1" d="M0-100C55-104 104-62 100-4 96 52 58 98 2 100-56 102-104 60-100 0-96-58-56-96 0-100Z"/><path transform="translate(90 300) scale(1.3)" fill="#dbe4f7" opacity="1" d="M-10-96C40-110 96-80 104-20 112 40 70 96 10 100-48 104-108 72-102 8-96-50-60-82-10-96Z"/><circle cx="580" cy="260" r="46" fill="#f9a95a" opacity=".18"/><circle cx="40" cy="40" r="4" fill="#3b82f6" opacity="0.35"/><circle cx="64" cy="40" r="4" fill="#3b82f6" opacity="0.35"/><circle cx="40" cy="64" r="4" fill="#3b82f6" opacity="0.35"/><circle cx="64" cy="64" r="4" fill="#3b82f6" opacity="0.35"/><path d="M270 300L300 250M470 300L440 250" stroke="#1E3A8A" stroke-width="10" stroke-linecap="round"/><rect x="220" y="50" width="300" height="200" rx="16" fill="#1E3A8A"/><rect x="234" y="64" width="272" height="172" rx="10" fill="#ffffff"/><text x="300" y="125" font-family="Calibri, Arial, sans-serif" font-weight="700" font-size="46" fill="#3b82f6" text-anchor="middle">A b</text><path d="M260 160H380" stroke="#d4dae0" stroke-width="7" stroke-linecap="round"/><path d="M260 184H380" stroke="#d4dae0" stroke-width="7" stroke-linecap="round"/><path d="M260 208H338.0" stroke="#d4dae0" stroke-width="7" stroke-linecap="round"/><rect x="400" y="100" width="80" height="80" rx="10" fill="#dbe4f7"/><path d="M412 168L436 136 452 154 468 124" fill="none" stroke="#f9a95a" stroke-width="6" stroke-linecap="round" stroke-linejoin="round"/><g transform="translate(130 170) scale(1.1)"><path fill="#f9a95a" d="M-60 160Q-62 62 0 56Q62 62 60 160Z"/><rect x="-11" y="20" width="22" height="26" rx="8" fill="#f2c4a0"/><path d="M-15 56L0 70L15 56" fill="none" stroke="#ffffff" stroke-width="5" stroke-linejoin="round" opacity=".85"/><path d="M46 80Q68.8 60.0 90 20" fill="none" stroke="#f9a95a" stroke-width="22" stroke-linecap="round"/><circle cx="90" cy="20" r="11" fill="#f2c4a0"/><circle cx="-30" cy="4" r="7" fill="#f2c4a0"/><circle cx="30" cy="4" r="7" fill="#f2c4a0"/><circle r="30" fill="#f2c4a0"/><circle cx="0" cy="-40" r="13" fill="#1f2d3d"/><path fill="#1f2d3d" d="M-31 4Q-35-35 0-36Q35-35 31 4Q27-14 8-17Q-12-12-31 4Z"/><circle cx="-10" cy="3" r="3.2" fill="#1f2d3d"/><circle cx="10" cy="3" r="3.2" fill="#1f2d3d"/><path d="M-8 14Q0 21 8 14" fill="none" stroke="#1f2d3d" stroke-width="3" stroke-linecap="round"/><circle cx="-18" cy="13" r="5" fill="#f9a95a" opacity=".35"/><circle cx="18" cy="13" r="5" fill="#f9a95a" opacity=".35"/></g><path d="M218 180L262 140" stroke="#1f2d3d" stroke-width="5" stroke-linecap="round"/><path transform="translate(575 290) scale(1.2)" fill="#3b82f6" d="M0-14C2-4 4-2 14 0 4 2 2 4 0 14-2 4-4 2-14 0-4-2-2-4 0-14Z"/></svg>
