<svg xmlns="http://www.w3.org/2000/svg" viewBox="0 0 640 360" width="640" height="360" role="img" aria-labelledby="t"><title id="t">Luyện nói tiếng Anh</title><rect width="640" height="360" fill="#eef2fb"/><path transform="translate(520 90) scale(1.9)" fill="#dbe4f7" opacity="1" d="M0-100C55-104 104-62 100-4 96 52 58 98 2 100-56 102-104 60-100 0-96-58-56-96 0-100Z"/><path transform="translate(90 300) scale(1.3)" fill="#dbe4f7" opacity="1" d="M-10-96C40-110 96-80 104-20 112 40 70 96 10 100-48 104-108 72-102 8-96-50-60-82-10-96Z"/><circle cx="580" cy="260" r="46" fill="#f9a95a" opacity=".18"/><circle cx="40" cy="40" r="4" fill="#3b82f6" opacity="0.35"/><circle cx="64" cy="40" r="4" fill="#3b82f6" opacity="0.35"/><circle cx="40" cy="64" r="4" fill="#3b82f6" opacity="0.35"/><circle cx="64" cy="64" r="4" fill="#3b82f6" opacity="0.35"/><g transform="translate(200 145) scale(1.3)"><path fill="#f9a95a" d="M-60 160Q-62 62 0 56Q62 62 60 160Z"/><rect x="-11" y="20" width="22" height="26" rx="8" fill="#c68b62"/><path d="M-15 56L0 70L15 56" fill="none" stroke="#ffffff" stroke-width="5" stroke-linejoin="round" opacity=".85"/><path d="M46 80Q58.8 109.0 40 118" fill="none" stroke="#f9a95a" stroke-width="22" stroke-linecap="round"/><circle cx="40" cy="118" r="11" fill="#c68b62"/><circle cx="-30" cy="4" r="7" fill="#c68b62"/><circle cx="30" cy="4" r="7" fill="#c68b62"/><circle r="30" fill="#c68b62"/><path fill="#1f2d3d" d="M-31 4Q-35-35 0-36Q35-35 31 4Q27-14 8-17Q-12-12-31 4Z"/><circle cx="-10" cy="3" r="3.2" fill="#1f2d3d"/><circle cx="10" cy="3" r="3.2" fill="#1f2d3d"/><path d="M-8 14Q0 21 8 14" fill="none" stroke="#1f2d3d" stroke-width="3" stroke-linecap="round"/><circle cx="-18" cy="13" r="5" fill="#f9a95a" opacity=".35"/><circle cx="18" cy="13" r="5" fill="#f9a95a" opacity=".35"/></g><g transform="translate(270 250) scale(1.0)"><path d="M-26 6Q-26 40 0 40Q26 40 26 6" fill="none" stroke="#1E3A8A" stroke-width="6"/><path d="M0 40V78M-26 80H26" stroke="#1E3A8A" stroke-width="7" stroke-linecap="round"/><rect x="-17" y="-50" width="34" height="76" rx="17" fill="#1E3A8A"/><path d="M-17-26H17M-17-14H17M-17-2H17" stroke="#3b82f6" stroke-width="3"/><rect x="-11" y="-44" width="6" height="18" rx="3" fill="#ffffff" opacity=".4"/></g><path d="M358 142L348 166L380 142Z" fill="#ffffff"/><rect x="340" y="60" width="220" height="84" rx="22" fill="#ffffff"/><text x="450" y="116" font-family="Calibri, Arial, sans-serif" font-weight="700" font-size="38" fill="#1E3A8A" text-anchor="middle">Hello!</text><path d="M398 237L388 261L420 237Z" fill="#3b82f6"/><rect x="380" y="175" width="170" height="64" rx="22" fill="#3b82f6"/><circle cx="430" cy="207" r="8" fill="#ffffff" opacity="1"/><circle cx="465" cy="207" r="8" fill="#ffffff" opacity="1"/><circle cx="500" cy="207" r="8" fill="#ffffff" opacity="1"/><path transform="translate(590 290) scale(1.1)" fill="#f9a95a" d="M0-14C2-4 4-2 14 0 4 2 2 4 0 14-2 4-4 2-14 0-4-2-2-4 0-14Z"/></svg>
