<svg xmlns="http://www.w3.org/2000/svg" viewBox="0 0 800 600" width="800" height="600" role="img" aria-labelledby="t"><title id="t">Chưa có dữ liệu</title><path transform="translate(400 320) scale(2.4)" fill="#dbe4f7" opacity="1" d="M0-100C55-104 104-62 100-4 96 52 58 98 2 100-56 102-104 60-100 0-96-58-56-96 0-100Z"/><circle cx="630" cy="140" r="54" fill="#f9a95a" opacity=".18"/><circle cx="140" cy="470" r="34" fill="#3b82f6" opacity=".12"/><circle cx="110" cy="90" r="5" fill="#3b82f6" opacity="0.3"/><circle cx="136" cy="90" r="5" fill="#3b82f6" opacity="0.3"/><circle cx="110" cy="116" r="5" fill="#3b82f6" opacity="0.3"/><circle cx="136" cy="116" r="5" fill="#3b82f6" opacity="0.3"/><circle cx="162" cy="90" r="5" fill="#3b82f6" opacity="0.3"/><circle cx="162" cy="116" r="5" fill="#3b82f6" opacity="0.3"/><ellipse cx="400.0" cy="520" rx="180.0" ry="18" fill="#1E3A8A" opacity=".08"/><path fill="#c9913f" d="M250 300L400 250 550 300 400 350Z"/><path fill="#f9a95a" d="M250 300L400 350V510L250 460Z"/><path fill="#f3b877" d="M550 300L400 350V510L550 460Z"/><path fill="#fbc58c" d="M250 300L190 250 340 200 400 250Z"/><path fill="#f7ba78" d="M550 300L610 250 460 200 400 250Z"/><path d="M400 360V500" stroke="#ffffff" stroke-width="4" opacity=".4"/><rect x="330" y="80" width="140" height="120" rx="18" fill="none" stroke="#3b82f6" stroke-width="5" stroke-dasharray="14 12"/><text x="400" y="160" font-family="Calibri, Arial, sans-serif" font-weight="700" font-size="56" fill="#3b82f6" text-anchor="middle">?</text><path transform="translate(250 140) scale(1.4)" fill="#f9a95a" d="M0-14C2-4 4-2 14 0 4 2 2 4 0 14-2 4-4 2-14 0-4-2-2-4 0-14Z"/><path transform="translate(570 150) scale(1.1)" fill="#3b82f6" d="M0-14C2-4 4-2 14 0 4 2 2 4 0 14-2 4-4 2-14 0-4-2-2-4 0-14Z"/><circle cx="220" cy="220" r="6" fill="#1E3A8A" opacity="0.3"/><circle cx="590" cy="220" r="6" fill="#1E3A8A" opacity="0.3"/></svg>
